<svg width="40" height="32" viewBox="0 0 40 32" fill="none" xmlns="http://www.w3.org/2000/svg">
<path d="M25.6309 0C25.24 0.732433 24.889 1.49013 24.57 2.26467C21.5386 1.7848 18.4514 1.7848 15.4122 2.26467C15.101 1.49013 14.7421 0.732433 14.3512 0C11.5033 0.513567 8.72727 1.41437 6.09482 2.6856C0.877739 10.8435 -0.534219 18.7908 0.16778 26.6288C3.22302 29.0113 6.64525 30.8298 10.2908 31.9916C11.1124 30.8298 11.8384 29.5922 12.4606 28.3041C11.28 27.8411 10.1392 27.2602 9.04637 26.5867C9.33354 26.3678 9.61275 26.1405 9.88396 25.9216C16.2896 29.1039 23.7084 29.1039 30.1221 25.9216C30.3933 26.1573 30.6725 26.3846 30.9596 26.5867C29.8668 27.2686 28.726 27.8411 27.5375 28.3126C28.1597 29.6006 28.8856 30.8382 29.7073 32C33.3527 30.8382 36.7749 29.0281 39.8304 26.6456C40.6598 17.5533 38.4104 9.67323 33.8871 2.69403C31.2628 1.4228 28.4867 0.521967 25.6389 0.0168333L25.6309 0ZM13.354 21.8048C11.3837 21.8048 9.74837 19.919 9.74837 17.587C9.74837 15.255 11.3199 13.3607 13.3461 13.3607C15.3723 13.3607 16.9836 15.2634 16.9517 17.587C16.9198 19.9106 15.3643 21.8048 13.354 21.8048ZM26.644 21.8048C24.6657 21.8048 23.0463 19.919 23.0463 17.587C23.0463 15.255 24.6178 13.3607 26.644 13.3607C28.6702 13.3607 30.2736 15.2634 30.2417 17.587C30.2098 19.9106 28.6543 21.8048 26.644 21.8048Z" fill="white"/>
</svg>
