<svg width="107" height="83" viewBox="0 0 107 83" fill="none" xmlns="http://www.w3.org/2000/svg">
<path d="M63.8366 0.74585C74.7105 -2.16755 85.8684 3.70319 89.7761 14.0085L105.443 43.3015C110.988 53.6697 99.8595 64.9995 89.3932 59.6423L62.7956 46.0271L39.4841 52.2732L23.2575 77.363C16.8722 87.2364 1.56918 82.988 1.18719 71.2361L0.00653076 34.905C-0.0392737 33.494 0.156665 32.1451 0.551453 30.8923C1.91046 22.7479 7.87508 15.7404 16.3708 13.4636L63.8366 0.74585ZM23.4577 26.7058C23.1717 25.6391 22.0743 25.006 21.0075 25.2917L16.8864 26.3962C15.8198 26.6822 15.1867 27.7787 15.4724 28.8455L17.0944 34.8992L11.0417 36.5203C9.97475 36.8061 9.34076 37.9035 9.62665 38.9705L10.7311 43.0916C11.0173 44.1581 12.1146 44.7914 13.1813 44.5056L19.2341 42.8835L20.8561 48.9373C21.1424 50.0035 22.2388 50.637 23.3054 50.3513L27.4265 49.2468C28.493 48.9609 29.1258 47.8642 28.8405 46.7976L27.2184 40.7439L33.2722 39.1218C34.3386 38.8358 34.9717 37.7392 34.6862 36.6726L33.5817 32.5515C33.2958 31.4847 32.1993 30.8518 31.1325 31.1375L25.0798 32.7595L23.4577 26.7058ZM76.4665 32.8962C75.7277 30.1405 72.8943 28.5056 70.1384 29.2439C67.3823 29.9824 65.7459 32.815 66.4841 35.571C67.2227 38.3271 70.057 39.9629 72.8132 39.2244C75.5688 38.4855 77.2048 35.6521 76.4665 32.8962ZM63.8102 25.5906C63.0718 22.8346 60.239 21.1984 57.4831 21.9363C54.727 22.6748 53.0905 25.5083 53.8288 28.2644C54.5674 31.0205 57.4018 32.6572 60.1579 31.9187C62.9134 31.1798 64.5483 28.3463 63.8102 25.5906ZM83.7731 20.241C83.0345 17.485 80.201 15.8495 77.445 16.5876C74.6889 17.3263 73.0532 20.1596 73.7917 22.9158C74.5303 25.6716 77.3629 27.3072 80.1188 26.5691C82.8748 25.8305 84.5114 22.997 83.7731 20.241ZM71.1179 12.9343C70.3793 10.1785 67.5456 8.54296 64.7897 9.28101C62.0336 10.0195 60.3971 12.853 61.1354 15.6091C61.8742 18.3649 64.7076 20.0007 67.4636 19.2625C70.2194 18.5238 71.856 15.6903 71.1179 12.9343Z" fill="#222222"/>
</svg>
